<svg width="58" height="58" viewBox="0 0 58 58" fill="none" xmlns="http://www.w3.org/2000/svg">
<circle cx="29" cy="29" r="29" fill="white"/>
<circle cx="29" cy="29" r="27" fill="#FFCE45"/>
<path d="M30.3334 42.9995V22.2182L37.3907 29.2755C37.9114 29.7962 38.7554 29.7962 39.276 29.2755C39.7967 28.7548 39.7967 27.9105 39.276 27.3898L29.9427 18.0565C29.422 17.5358 28.5777 17.5358 28.0574 18.0565L18.724 27.3898C18.4637 27.6502 18.3334 27.9912 18.3334 28.3328C18.3334 28.6738 18.4637 29.0152 18.724 29.2755C19.2447 29.7962 20.089 29.7962 20.6094 29.2755L27.6667 22.2182V42.9995C27.6667 43.7359 28.2637 44.3329 29 44.3329C29.7364 44.3329 30.3334 43.7359 30.3334 42.9995Z" fill="white"/>
<line x1="18" y1="13" x2="40" y2="13" stroke="white" stroke-width="2"/>
</svg>
