<svg width="58" height="58" viewBox="0 0 58 58" fill="none" xmlns="http://www.w3.org/2000/svg">
<circle cx="29" cy="29" r="29" fill="white"/>
<circle cx="29" cy="29" r="27" fill="#FFCE45"/>
<path d="M29.4997 14C21.4918 14 15 20.492 15 28.4997C15 36.5073 21.4918 43 29.4997 43C37.5077 43 44 36.5075 44 28.4997C43.9997 20.492 37.5077 14 29.4997 14ZM34.4517 23.2751C34.4517 23.4135 34.3396 23.5258 34.201 23.5258H30.6711V25.423H34.2007C34.3393 25.423 34.4514 25.5353 34.4514 25.6737V29.203C34.4514 29.3416 34.3393 29.4537 34.2007 29.4537H30.9218V37.1987C30.9218 37.3374 30.8097 37.4495 30.6711 37.4495H27.3353C27.1967 37.4495 27.0846 37.3374 27.0846 37.1987V29.454H24.7988C24.6601 29.454 24.5481 29.3419 24.5481 29.2033V25.674C24.5481 25.5356 24.6601 25.4232 24.7988 25.4232H27.0846V23.9922C27.0846 23.9716 27.0871 23.9518 27.0916 23.9328C27.0936 21.8942 27.5296 19.5621 30.8694 19.5515C30.8767 19.551 30.8845 19.5505 30.892 19.5505H34.2007C34.3393 19.5505 34.4514 19.6629 34.4514 19.8013V23.2751H34.4517Z" fill="white"/>
</svg>
