<svg width="58" height="58" viewBox="0 0 58 58" fill="none" xmlns="http://www.w3.org/2000/svg">
<circle cx="29" cy="29" r="29" fill="white"/>
<circle cx="29" cy="29" r="27" fill="#FFCE45"/>
<path d="M43.8333 14H14.8333C12.1641 14 10 16.1641 10 18.8333V38.1667C10 40.8359 12.1641 43 14.8333 43H43.8333C46.5025 43 48.6667 40.8359 48.6667 38.1667V18.8333C48.6667 16.1641 46.5025 14 43.8333 14ZM35.8777 26.8975L46.1084 18.13C46.1792 18.3566 46.25 18.5831 46.25 18.8333V38.1667C46.25 38.3342 46.1863 38.4829 46.1533 38.641L35.8777 26.8975ZM43.8333 16.4167C43.9938 16.4167 44.1354 16.4781 44.2865 16.5087L29.3333 29.326L14.3802 16.5087C14.5313 16.4781 14.6729 16.4167 14.8333 16.4167H43.8333ZM12.5123 38.6387C12.4792 38.4805 12.4167 38.3342 12.4167 38.1667V18.8333C12.4167 18.5831 12.4886 18.3566 12.5595 18.13L22.7867 26.8952L12.5123 38.6387ZM14.8333 40.5833C14.5891 40.5833 14.3672 40.5125 14.1442 40.4441L24.6227 28.4693L28.5475 31.8323C28.7728 32.0283 29.0537 32.125 29.3333 32.125C29.613 32.125 29.8939 32.0283 30.1192 31.8324L34.0439 28.4693L44.5225 40.4442C44.3007 40.5125 44.0788 40.5833 43.8333 40.5833H14.8333Z" fill="white"/>
</svg>
