<svg width="58" height="58" viewBox="0 0 58 58" fill="none" xmlns="http://www.w3.org/2000/svg">
<circle cx="29" cy="29" r="29" fill="white"/>
<circle cx="29" cy="29" r="27" fill="#FFCE45"/>
<path d="M42.8792 37.3189L42.7398 36.8989C42.4096 35.9176 41.3275 34.8942 40.3334 34.6246L36.6541 33.6195C35.6564 33.3481 34.2331 33.7131 33.5031 34.443L32.1715 35.7746C27.3322 34.467 23.5374 30.6721 22.2315 25.8337L23.5632 24.502C24.2932 23.772 24.6581 22.3506 24.3867 21.3529L23.3834 17.6718C23.1119 16.6758 22.0866 15.5937 21.1073 15.2672L20.6873 15.126C19.706 14.7995 18.3065 15.1297 17.5766 15.8597L15.5847 17.8534C15.2289 18.2073 15.0014 19.2198 15.0014 19.2235C14.9318 25.5475 17.4115 31.6404 21.8849 36.1139C26.3473 40.5762 32.4173 43.0523 38.723 42.9992C38.756 42.9992 39.7978 42.7754 40.1536 42.4213L42.1455 40.4295C42.8755 39.6996 43.2056 38.3002 42.8792 37.3189Z" fill="white"/>
</svg>
